<svg width="28" height="28" viewBox="0 0 28 28" fill="none" xmlns="http://www.w3.org/2000/svg">
<g clip-path="url(#clip0_143_763)">
<path d="M3.5 5.83333V22.1667C3.5 23.45 4.55 24.5 5.83333 24.5H22.1667C23.45 24.5 24.5 23.45 24.5 22.1667V5.83333C24.5 4.55 23.45 3.5 22.1667 3.5H5.83333C4.55 3.5 3.5 4.55 3.5 5.83333ZM12.8333 22.1667H7C6.35833 22.1667 5.83333 21.6417 5.83333 21V15.1667H11.6667C12.3083 15.1667 12.8333 15.6917 12.8333 16.3333V22.1667ZM11.6667 12.8333H5.83333V7C5.83333 6.35833 6.35833 5.83333 7 5.83333H12.8333V11.6667C12.8333 12.3083 12.3083 12.8333 11.6667 12.8333ZM21 22.1667H15.1667V16.3333C15.1667 15.6917 15.6917 15.1667 16.3333 15.1667H22.1667V21C22.1667 21.6417 21.6417 22.1667 21 22.1667ZM22.1667 12.8333H16.3333C15.6917 12.8333 15.1667 12.3083 15.1667 11.6667V5.83333H21C21.6417 5.83333 22.1667 6.35833 22.1667 7V12.8333Z" fill="white"/>
</g>
<defs>
<clipPath id="clip0_143_763">
<rect width="28" height="28" fill="white"/>
</clipPath>
</defs>
</svg>
