<svg width="28" height="28" viewBox="0 0 28 28" fill="none" xmlns="http://www.w3.org/2000/svg">
<g clip-path="url(#clip0_143_738)">
<path d="M7.46634 10.7335H7.69967C8.59801 10.7335 9.33301 11.4685 9.33301 12.3668V20.5335C9.33301 21.4318 8.59801 22.1668 7.69967 22.1668H7.46634C6.56801 22.1668 5.83301 21.4318 5.83301 20.5335V12.3668C5.83301 11.4685 6.56801 10.7335 7.46634 10.7335ZM13.9997 5.8335C14.898 5.8335 15.633 6.5685 15.633 7.46683V20.5335C15.633 21.4318 14.898 22.1668 13.9997 22.1668C13.1013 22.1668 12.3663 21.4318 12.3663 20.5335V7.46683C12.3663 6.5685 13.1013 5.8335 13.9997 5.8335ZM20.533 15.1668C21.4313 15.1668 22.1663 15.9018 22.1663 16.8002V20.5335C22.1663 21.4318 21.4313 22.1668 20.533 22.1668C19.6347 22.1668 18.8997 21.4318 18.8997 20.5335V16.8002C18.8997 15.9018 19.6347 15.1668 20.533 15.1668Z" fill="white"/>
</g>
<defs>
<clipPath id="clip0_143_738">
<rect width="28" height="28" fill="white"/>
</clipPath>
</defs>
</svg>
