<svg width="27" height="27" viewBox="0 0 27 27" fill="none" xmlns="http://www.w3.org/2000/svg">
<g clip-path="url(#clip0_261_682)">
<path d="M0 0H27V27H0V0Z" fill="#121212"/>
<path d="M9.78754 17.8876L5.40004 13.5001L9.78754 9.11256C10.2263 8.67381 10.2263 7.97631 9.78754 7.53756C9.34879 7.09881 8.65129 7.09881 8.21254 7.53756L3.04879 12.7013C2.61004 13.1401 2.61004 13.8488 3.04879 14.2876L8.21254 19.4626C8.65129 19.9013 9.34879 19.9013 9.78754 19.4626C10.2263 19.0238 10.2263 18.3263 9.78754 17.8876ZM17.2125 17.8876L21.6 13.5001L17.2125 9.11256C16.7738 8.67381 16.7738 7.97631 17.2125 7.53756C17.6513 7.09881 18.3488 7.09881 18.7875 7.53756L23.9513 12.7013C24.39 13.1401 24.39 13.8488 23.9513 14.2876L18.7875 19.4626C18.3488 19.9013 17.6513 19.9013 17.2125 19.4626C16.7738 19.0238 16.7738 18.3263 17.2125 17.8876Z" fill="white"/>
</g>
<defs>
<clipPath id="clip0_261_682">
<rect width="27" height="27" fill="white"/>
</clipPath>
</defs>
</svg>
