<svg width="28" height="28" viewBox="0 0 28 28" fill="none" xmlns="http://www.w3.org/2000/svg">
<g clip-path="url(#clip0_143_787)">
<path d="M26.8337 9.33333C26.8337 10.6167 25.7837 11.6667 24.5003 11.6667C24.2903 11.6667 24.092 11.6433 23.9053 11.585L19.752 15.7267C19.8103 15.9133 19.8337 16.1233 19.8337 16.3333C19.8337 17.6167 18.7837 18.6667 17.5003 18.6667C16.217 18.6667 15.167 17.6167 15.167 16.3333C15.167 16.1233 15.1903 15.9133 15.2487 15.7267L12.2737 12.7517C12.087 12.81 11.877 12.8333 11.667 12.8333C11.457 12.8333 11.247 12.81 11.0603 12.7517L5.75199 18.0717C5.81033 18.2583 5.83366 18.4567 5.83366 18.6667C5.83366 19.95 4.78366 21 3.50033 21C2.21699 21 1.16699 19.95 1.16699 18.6667C1.16699 17.3833 2.21699 16.3333 3.50033 16.3333C3.71033 16.3333 3.90866 16.3567 4.09533 16.415L9.41533 11.1067C9.35699 10.92 9.33366 10.71 9.33366 10.5C9.33366 9.21667 10.3837 8.16667 11.667 8.16667C12.9503 8.16667 14.0003 9.21667 14.0003 10.5C14.0003 10.71 13.977 10.92 13.9187 11.1067L16.8937 14.0817C17.0803 14.0233 17.2903 14 17.5003 14C17.7103 14 17.9203 14.0233 18.107 14.0817L22.2487 9.92833C22.1903 9.74167 22.167 9.54333 22.167 9.33333C22.167 8.05 23.217 7 24.5003 7C25.7837 7 26.8337 8.05 26.8337 9.33333Z" fill="white"/>
</g>
<defs>
<clipPath id="clip0_143_787">
<rect width="28" height="28" fill="white"/>
</clipPath>
</defs>
</svg>
