<svg width="32" height="34" viewBox="0 0 32 34" fill="none" xmlns="http://www.w3.org/2000/svg">
<g clip-path="url(#clip0_143_750)" filter="url(#filter0_d_143_750)">
<path d="M6.66634 4.66683H25.333V18.6668H8.03134L6.66634 20.0318V4.66683ZM6.66634 2.3335C5.38301 2.3335 4.34467 3.3835 4.34467 4.66683L4.33301 25.6668L8.99967 21.0002H25.333C26.6163 21.0002 27.6663 19.9502 27.6663 18.6668V4.66683C27.6663 3.3835 26.6163 2.3335 25.333 2.3335H6.66634ZM8.99967 14.0002H18.333V16.3335H8.99967V14.0002ZM8.99967 10.5002H22.9997V12.8335H8.99967V10.5002ZM8.99967 7.00016H22.9997V9.3335H8.99967V7.00016Z" fill="white"/>
</g>
<defs>
<filter id="filter0_d_143_750" x="-2" y="0" width="36" height="36" filterUnits="userSpaceOnUse" color-interpolation-filters="sRGB">
<feFlood flood-opacity="0" result="BackgroundImageFix"/>
<feColorMatrix in="SourceAlpha" type="matrix" values="0 0 0 0 0 0 0 0 0 0 0 0 0 0 0 0 0 0 127 0" result="hardAlpha"/>
<feOffset dy="4"/>
<feGaussianBlur stdDeviation="2"/>
<feComposite in2="hardAlpha" operator="out"/>
<feColorMatrix type="matrix" values="0 0 0 0 0 0 0 0 0 0 0 0 0 0 0 0 0 0 0.25 0"/>
<feBlend mode="normal" in2="BackgroundImageFix" result="effect1_dropShadow_143_750"/>
<feBlend mode="normal" in="SourceGraphic" in2="effect1_dropShadow_143_750" result="shape"/>
</filter>
<clipPath id="clip0_143_750">
<rect width="28" height="28" fill="white" transform="translate(2)"/>
</clipPath>
</defs>
</svg>
