<svg width="27" height="27" viewBox="0 0 27 27" fill="none" xmlns="http://www.w3.org/2000/svg">
<g clip-path="url(#clip0_261_780)">
<path d="M0 0H27V27H0V0Z" fill="#121212"/>
<path d="M9.78656 17.8876L5.39906 13.5001L9.78656 9.11256C10.2253 8.67381 10.2253 7.97631 9.78656 7.53756C9.34781 7.09881 8.65031 7.09881 8.21156 7.53756L3.04781 12.7013C2.60906 13.1401 2.60906 13.8488 3.04781 14.2876L8.21156 19.4626C8.65031 19.9013 9.34781 19.9013 9.78656 19.4626C10.2253 19.0238 10.2253 18.3263 9.78656 17.8876ZM17.2116 17.8876L21.5991 13.5001L17.2116 9.11256C16.7728 8.67381 16.7728 7.97631 17.2116 7.53756C17.6503 7.09881 18.3478 7.09881 18.7866 7.53756L23.9503 12.7013C24.3891 13.1401 24.3891 13.8488 23.9503 14.2876L18.7866 19.4626C18.3478 19.9013 17.6503 19.9013 17.2116 19.4626C16.7728 19.0238 16.7728 18.3263 17.2116 17.8876Z" fill="white"/>
</g>
<defs>
<clipPath id="clip0_261_780">
<rect width="27" height="27" fill="white"/>
</clipPath>
</defs>
</svg>
