<svg width="28" height="28" viewBox="0 0 28 28" fill="none" xmlns="http://www.w3.org/2000/svg">
<g clip-path="url(#clip0_143_726)">
<path d="M10.5 12.8335H8.16667V15.1668H10.5V12.8335ZM15.1667 12.8335H12.8333V15.1668H15.1667V12.8335ZM19.8333 12.8335H17.5V15.1668H19.8333V12.8335ZM22.1667 4.66683H21V2.3335H18.6667V4.66683H9.33333V2.3335H7V4.66683H5.83333C4.53833 4.66683 3.51167 5.71683 3.51167 7.00016L3.5 23.3335C3.5 24.6168 4.53833 25.6668 5.83333 25.6668H22.1667C23.45 25.6668 24.5 24.6168 24.5 23.3335V7.00016C24.5 5.71683 23.45 4.66683 22.1667 4.66683ZM22.1667 23.3335H5.83333V10.5002H22.1667V23.3335Z" fill="white"/>
</g>
<defs>
<clipPath id="clip0_143_726">
<rect width="28" height="28" fill="white"/>
</clipPath>
</defs>
</svg>
