<svg width="28" height="28" viewBox="0 0 28 28" fill="none" xmlns="http://www.w3.org/2000/svg">
<path d="M22.1667 8.16667H10.5C9.21667 8.16667 8.16667 9.21667 8.16667 10.5V22.1667C8.16667 23.45 9.21667 24.5 10.5 24.5H22.1667C23.45 24.5 24.5 23.45 24.5 22.1667V10.5C24.5 9.21667 23.45 8.16667 22.1667 8.16667ZM22.1667 11.6667C22.1667 12.3083 21.6417 12.8333 21 12.8333H11.6667C11.025 12.8333 10.5 12.3083 10.5 11.6667C10.5 11.025 11.025 10.5 11.6667 10.5H21C21.6417 10.5 22.1667 11.025 22.1667 11.6667ZM15.1667 17.5V15.1667H17.5V17.5H15.1667ZM17.5 19.8333V22.1667H15.1667V19.8333H17.5ZM12.8333 17.5H10.5V15.1667H12.8333V17.5ZM19.8333 15.1667H22.1667V17.5H19.8333V15.1667ZM10.5 19.8333H12.8333V22.1667H10.5V19.8333ZM19.8333 22.1667V19.8333H22.1667V22.1667H19.8333ZM7 19.8333H5.83333C4.55 19.8333 3.5 18.7833 3.5 17.5V5.83333C3.5 4.55 4.55 3.5 5.83333 3.5H17.5C18.7833 3.5 19.8333 4.55 19.8333 5.83333V7H17.5V5.83333H5.83333V17.5H7V19.8333Z" fill="white"/>
</svg>
