<svg width="14" height="22" viewBox="0 0 14 22" fill="none" xmlns="http://www.w3.org/2000/svg">
<path d="M13.6035 15.4492C13.6035 16.6341 13.3164 17.6641 12.7422 18.5391C12.168 19.4141 11.3294 20.0885 10.2266 20.5625C9.13281 21.0365 7.80208 21.2734 6.23438 21.2734C5.54167 21.2734 4.86263 21.2279 4.19727 21.1367C3.54102 21.0456 2.90755 20.9134 2.29688 20.7402C1.69531 20.5579 1.12109 20.3346 0.574219 20.0703V16.1328C1.52214 16.5521 2.50651 16.9303 3.52734 17.2676C4.54818 17.6048 5.5599 17.7734 6.5625 17.7734C7.25521 17.7734 7.8112 17.6823 8.23047 17.5C8.65885 17.3177 8.96875 17.0671 9.16016 16.748C9.35156 16.429 9.44727 16.0645 9.44727 15.6543C9.44727 15.153 9.27865 14.7246 8.94141 14.3691C8.60417 14.0137 8.13932 13.681 7.54688 13.3711C6.96354 13.0612 6.30273 12.7285 5.56445 12.373C5.09961 12.1543 4.59375 11.89 4.04688 11.5801C3.5 11.2611 2.98047 10.8737 2.48828 10.418C1.99609 9.96224 1.59049 9.41081 1.27148 8.76367C0.961589 8.10742 0.806641 7.32357 0.806641 6.41211C0.806641 5.2181 1.08008 4.19727 1.62695 3.34961C2.17383 2.50195 2.95312 1.85482 3.96484 1.4082C4.98568 0.952474 6.1888 0.724609 7.57422 0.724609C8.61328 0.724609 9.60221 0.847656 10.541 1.09375C11.4889 1.33073 12.4779 1.67708 13.5078 2.13281L12.1406 5.42773C11.2201 5.05404 10.3952 4.76693 9.66602 4.56641C8.93685 4.35677 8.19401 4.25195 7.4375 4.25195C6.90885 4.25195 6.45768 4.33854 6.08398 4.51172C5.71029 4.67578 5.42773 4.91276 5.23633 5.22266C5.04492 5.52344 4.94922 5.87435 4.94922 6.27539C4.94922 6.74935 5.08594 7.15039 5.35938 7.47852C5.64193 7.79753 6.0612 8.10742 6.61719 8.4082C7.18229 8.70898 7.88411 9.0599 8.72266 9.46094C9.74349 9.94401 10.6139 10.4499 11.334 10.9785C12.0632 11.498 12.6237 12.1133 13.0156 12.8242C13.4076 13.526 13.6035 14.401 13.6035 15.4492Z" fill="#999999"/>
</svg>
