<svg width="29" height="29" viewBox="0 0 29 29" fill="none" xmlns="http://www.w3.org/2000/svg">
<g clip-path="url(#clip0_127_1201)">
<path d="M14.5001 8.45817C13.8355 8.45817 13.2917 9.00192 13.2917 9.6665V13.2915H9.66675C9.00216 13.2915 8.45841 13.8353 8.45841 14.4998C8.45841 15.1644 9.00216 15.7082 9.66675 15.7082H13.2917V19.3332C13.2917 19.9978 13.8355 20.5415 14.5001 20.5415C15.1647 20.5415 15.7084 19.9978 15.7084 19.3332V15.7082H19.3334C19.998 15.7082 20.5417 15.1644 20.5417 14.4998C20.5417 13.8353 19.998 13.2915 19.3334 13.2915H15.7084V9.6665C15.7084 9.00192 15.1647 8.45817 14.5001 8.45817ZM14.5001 2.4165C7.83008 2.4165 2.41675 7.82984 2.41675 14.4998C2.41675 21.1698 7.83008 26.5832 14.5001 26.5832C21.1701 26.5832 26.5834 21.1698 26.5834 14.4998C26.5834 7.82984 21.1701 2.4165 14.5001 2.4165ZM14.5001 24.1665C9.17133 24.1665 4.83341 19.8286 4.83341 14.4998C4.83341 9.17109 9.17133 4.83317 14.5001 4.83317C19.8288 4.83317 24.1667 9.17109 24.1667 14.4998C24.1667 19.8286 19.8288 24.1665 14.5001 24.1665Z" fill="white"/>
</g>
<defs>
<clipPath id="clip0_127_1201">
<rect width="29" height="29" fill="white"/>
</clipPath>
</defs>
</svg>
