<svg width="34" height="35" viewBox="0 0 34 35" fill="none" xmlns="http://www.w3.org/2000/svg">
<path d="M11.2041 25.8218L11.2041 9.94538C11.2041 6.89434 13.6534 4.42314 16.6773 4.42314C19.7013 4.42314 22.1506 6.89434 22.1506 9.94538L22.1506 27.2024C22.1506 29.1075 20.6181 30.6538 18.7298 30.6538C16.8416 30.6538 15.309 29.1075 15.309 27.2024L15.309 12.7065C15.309 11.9472 15.9248 11.3259 16.6774 11.3259C17.4299 11.3259 18.0457 11.9472 18.0457 12.7065L18.0457 25.8218L20.0982 25.8218L20.0982 12.7065C20.0982 10.8013 18.5656 9.2551 16.6773 9.2551C14.7891 9.2551 13.2565 10.8013 13.2565 12.7065L13.2565 27.2024C13.2565 30.2534 15.7058 32.7246 18.7298 32.7246C21.7538 32.7246 24.2031 30.2534 24.2031 27.2024L24.2031 9.94538C24.2031 5.74848 20.837 2.3523 16.6773 2.3523C12.5176 2.3523 9.15158 5.74848 9.15158 9.94538L9.15158 25.8218L11.2041 25.8218Z" fill="white"/>
</svg>
