<svg width="27" height="27" viewBox="0 0 27 27" fill="none" xmlns="http://www.w3.org/2000/svg">
<g clip-path="url(#clip0_261_770)">
<path d="M0 0H27V27H0V0Z" fill="#121212"/>
<path d="M22.5 3.375H21.375V2.25C21.375 1.63125 20.8687 1.125 20.25 1.125C19.6313 1.125 19.125 1.63125 19.125 2.25V3.375H7.875V2.25C7.875 1.63125 7.36875 1.125 6.75 1.125C6.13125 1.125 5.625 1.63125 5.625 2.25V3.375H4.5C3.2625 3.375 2.25 4.3875 2.25 5.625V23.625C2.25 24.8625 3.2625 25.875 4.5 25.875H22.5C23.7375 25.875 24.75 24.8625 24.75 23.625V5.625C24.75 4.3875 23.7375 3.375 22.5 3.375ZM21.375 23.625H5.625C5.00625 23.625 4.5 23.1187 4.5 22.5V9H22.5V22.5C22.5 23.1187 21.9937 23.625 21.375 23.625Z" fill="white"/>
</g>
<defs>
<clipPath id="clip0_261_770">
<rect width="27" height="27" fill="white"/>
</clipPath>
</defs>
</svg>
