<svg width="34" height="35" viewBox="0 0 34 35" fill="none" xmlns="http://www.w3.org/2000/svg">
<g clip-path="url(#clip0_237_2295)">
<path d="M21.6111 16.1578C22.7446 16.1578 23.6636 15.2306 23.6636 14.087C23.6636 12.9433 22.7446 12.0161 21.6111 12.0161C20.4775 12.0161 19.5586 12.9433 19.5586 14.087C19.5586 15.2306 20.4775 16.1578 21.6111 16.1578Z" fill="white"/>
<path d="M12.033 16.1578C13.1665 16.1578 14.0854 15.2306 14.0854 14.087C14.0854 12.9433 13.1665 12.0161 12.033 12.0161C10.8994 12.0161 9.98047 12.9433 9.98047 14.087C9.98047 15.2306 10.8994 16.1578 12.033 16.1578Z" fill="white"/>
<path d="M16.8221 25.822C19.9419 25.822 22.5964 23.5303 23.6637 20.2998H9.98047C11.0478 23.5303 13.7023 25.822 16.8221 25.822Z" fill="white"/>
<path d="M16.8082 3.73291C9.25507 3.73291 3.13867 9.91782 3.13867 17.5385C3.13867 25.1592 9.25507 31.3441 16.8082 31.3441C24.375 31.3441 30.5051 25.1592 30.5051 17.5385C30.5051 9.91782 24.375 3.73291 16.8082 3.73291ZM16.8219 28.583C10.7739 28.583 5.87532 23.6406 5.87532 17.5385C5.87532 11.4364 10.7739 6.49403 16.8219 6.49403C22.8699 6.49403 27.7685 11.4364 27.7685 17.5385C27.7685 23.6406 22.8699 28.583 16.8219 28.583Z" fill="white"/>
</g>
<defs>
<clipPath id="clip0_237_2295">
<rect width="32.8397" height="33.1334" fill="white" transform="translate(0.402344 0.97168)"/>
</clipPath>
</defs>
</svg>
