<svg width="29" height="29" viewBox="0 0 29 29" fill="none" xmlns="http://www.w3.org/2000/svg">
<g clip-path="url(#clip0_127_1180)">
<path d="M24.1667 7.25016H14.5001L12.7963 5.54641C12.3372 5.08725 11.7209 4.8335 11.0805 4.8335H4.83341C3.50425 4.8335 2.42883 5.921 2.42883 7.25016L2.41675 21.7502C2.41675 23.0793 3.50425 24.1668 4.83341 24.1668H24.1667C25.4959 24.1668 26.5834 23.0793 26.5834 21.7502V9.66683C26.5834 8.33766 25.4959 7.25016 24.1667 7.25016ZM18.1251 10.8752C19.4542 10.8752 20.5417 11.9627 20.5417 13.2918C20.5417 14.621 19.4542 15.7085 18.1251 15.7085C16.7959 15.7085 15.7084 14.621 15.7084 13.2918C15.7084 11.9627 16.7959 10.8752 18.1251 10.8752ZM22.9584 20.5418H13.2917V19.3335C13.2917 17.7264 16.518 16.9168 18.1251 16.9168C19.7322 16.9168 22.9584 17.7264 22.9584 19.3335V20.5418Z" fill="white"/>
</g>
<defs>
<clipPath id="clip0_127_1180">
<rect width="29" height="29" fill="white"/>
</clipPath>
</defs>
</svg>
