<svg width="34" height="34" viewBox="0 0 34 34" fill="none" xmlns="http://www.w3.org/2000/svg">
<circle cx="17" cy="17" r="16" fill="#2B2829" stroke="white" stroke-width="2"/>
<path d="M17.386 8.63061L13.0002 13.0164C12.7073 13.3094 12.541 13.7131 12.541 14.1327L12.541 22.0414C12.541 22.9123 13.2535 23.6248 14.1243 23.6248H21.2494C21.8827 23.6248 22.4527 23.2448 22.706 22.6669L25.2869 16.6423C25.9519 15.0748 24.8039 13.3331 23.1019 13.3331L18.6289 13.3331L19.381 9.70727C19.4602 9.31144 19.3414 8.90769 19.0564 8.62269C18.5893 8.16352 17.8452 8.16352 17.386 8.63061ZM9.37435 23.6248C10.2452 23.6248 10.9577 22.9123 10.9577 22.0414L10.9577 15.7081C10.9577 14.8373 10.2452 14.1248 9.37435 14.1248C8.50352 14.1248 7.79102 14.8373 7.79102 15.7081L7.79102 22.0414C7.79102 22.9123 8.50352 23.6248 9.37435 23.6248Z" fill="white"/>
</svg>
