<svg width="29" height="29" viewBox="0 0 29 29" fill="none" xmlns="http://www.w3.org/2000/svg">
<g clip-path="url(#clip0_127_1144)">
<path d="M12.0834 22.9585V16.9168H16.9167V22.9585C16.9167 23.623 17.4605 24.1668 18.1251 24.1668H21.7501C22.4146 24.1668 22.9584 23.623 22.9584 22.9585V14.5001H25.0126C25.5684 14.5001 25.8342 13.8114 25.4113 13.4489L15.3096 4.35012C14.8505 3.93928 14.1496 3.93928 13.6905 4.35012L3.58881 13.4489C3.17797 13.8114 3.43172 14.5001 3.98756 14.5001H6.04172V22.9585C6.04172 23.623 6.58547 24.1668 7.25006 24.1668H10.8751C11.5396 24.1668 12.0834 23.623 12.0834 22.9585Z" fill="white"/>
</g>
<defs>
<clipPath id="clip0_127_1144">
<rect width="29" height="29" fill="white"/>
</clipPath>
</defs>
</svg>
