<svg width="29" height="29" viewBox="0 0 29 29" fill="none" xmlns="http://www.w3.org/2000/svg">
<g clip-path="url(#clip0_127_1273)">
<path d="M14.5001 2.4165C7.83008 2.4165 2.41675 7.82984 2.41675 14.4998C2.41675 21.1698 7.83008 26.5832 14.5001 26.5832C21.1701 26.5832 26.5834 21.1698 26.5834 14.4998C26.5834 7.82984 21.1701 2.4165 14.5001 2.4165ZM14.5001 20.5415C13.8355 20.5415 13.2917 19.9978 13.2917 19.3332V14.4998C13.2917 13.8353 13.8355 13.2915 14.5001 13.2915C15.1647 13.2915 15.7084 13.8353 15.7084 14.4998V19.3332C15.7084 19.9978 15.1647 20.5415 14.5001 20.5415ZM15.7084 10.8748H13.2917V8.45817H15.7084V10.8748Z" fill="white"/>
</g>
<defs>
<clipPath id="clip0_127_1273">
<rect width="29" height="29" fill="white"/>
</clipPath>
</defs>
</svg>
