<svg width="29" height="29" viewBox="0 0 29 29" fill="none" xmlns="http://www.w3.org/2000/svg">
<g clip-path="url(#clip0_127_1153)">
<path d="M24.1667 2.4165H4.83341C3.50425 2.4165 2.42883 3.504 2.42883 4.83317L2.41675 26.5832L7.25008 21.7498H24.1667C25.4959 21.7498 26.5834 20.6623 26.5834 19.3332V4.83317C26.5834 3.504 25.4959 2.4165 24.1667 2.4165ZM20.5417 16.9165H8.45842C7.79383 16.9165 7.25008 16.3728 7.25008 15.7082C7.25008 15.0436 7.79383 14.4998 8.45842 14.4998H20.5417C21.2063 14.4998 21.7501 15.0436 21.7501 15.7082C21.7501 16.3728 21.2063 16.9165 20.5417 16.9165ZM20.5417 13.2915H8.45842C7.79383 13.2915 7.25008 12.7478 7.25008 12.0832C7.25008 11.4186 7.79383 10.8748 8.45842 10.8748H20.5417C21.2063 10.8748 21.7501 11.4186 21.7501 12.0832C21.7501 12.7478 21.2063 13.2915 20.5417 13.2915ZM20.5417 9.6665H8.45842C7.79383 9.6665 7.25008 9.12275 7.25008 8.45817C7.25008 7.79359 7.79383 7.24984 8.45842 7.24984H20.5417C21.2063 7.24984 21.7501 7.79359 21.7501 8.45817C21.7501 9.12275 21.2063 9.6665 20.5417 9.6665Z" fill="white"/>
</g>
<defs>
<clipPath id="clip0_127_1153">
<rect width="29" height="29" fill="white"/>
</clipPath>
</defs>
</svg>
