<svg width="27" height="27" viewBox="0 0 27 27" fill="none" xmlns="http://www.w3.org/2000/svg">
<g clip-path="url(#clip0_202_597)">
<path d="M0 0H27V27H0V0Z" fill="#3D3D3D"/>
<path d="M13.5 6.6375C14.805 6.6375 15.8625 7.695 15.8625 9C15.8625 10.305 14.805 11.3625 13.5 11.3625C12.195 11.3625 11.1375 10.305 11.1375 9C11.1375 7.695 12.195 6.6375 13.5 6.6375ZM13.5 16.7625C16.8413 16.7625 20.3625 18.405 20.3625 19.125V20.3625H6.6375V19.125C6.6375 18.405 10.1588 16.7625 13.5 16.7625ZM13.5 4.5C11.0138 4.5 9 6.51375 9 9C9 11.4862 11.0138 13.5 13.5 13.5C15.9862 13.5 18 11.4862 18 9C18 6.51375 15.9862 4.5 13.5 4.5ZM13.5 14.625C10.4963 14.625 4.5 16.1325 4.5 19.125V22.5H22.5V19.125C22.5 16.1325 16.5037 14.625 13.5 14.625Z" fill="#CED0FF"/>
</g>
<defs>
<clipPath id="clip0_202_597">
<rect width="27" height="27" fill="white"/>
</clipPath>
</defs>
</svg>
