<svg width="21" height="21" viewBox="0 0 21 21" fill="none" xmlns="http://www.w3.org/2000/svg">
<g clip-path="url(#clip0_202_689)">
<path d="M13.125 10.5C15.0588 10.5 16.625 8.93375 16.625 7C16.625 5.06625 15.0588 3.5 13.125 3.5C11.1912 3.5 9.625 5.06625 9.625 7C9.625 8.93375 11.1912 10.5 13.125 10.5ZM13.125 5.25C14.0875 5.25 14.875 6.0375 14.875 7C14.875 7.9625 14.0875 8.75 13.125 8.75C12.1625 8.75 11.375 7.9625 11.375 7C11.375 6.0375 12.1625 5.25 13.125 5.25ZM13.125 12.25C10.7887 12.25 6.125 13.4225 6.125 15.75V17.5H20.125V15.75C20.125 13.4225 15.4613 12.25 13.125 12.25ZM7.875 15.75C8.0675 15.12 10.7712 14 13.125 14C15.4875 14 18.2 15.1287 18.375 15.75H7.875ZM5.25 13.125V10.5H7.875V8.75H5.25V6.125H3.5V8.75H0.875V10.5H3.5V13.125H5.25Z" fill="#6C6C6C"/>
</g>
<defs>
<clipPath id="clip0_202_689">
<rect width="21" height="21" fill="white"/>
</clipPath>
</defs>
</svg>
