<svg width="29" height="29" viewBox="0 0 29 29" fill="none" xmlns="http://www.w3.org/2000/svg">
<g clip-path="url(#clip0_127_1207)">
<path d="M23.4778 15.684C23.5262 15.2973 23.5624 14.9107 23.5624 14.4998C23.5624 14.089 23.5262 13.7023 23.4778 13.3157L26.0274 11.3219C26.257 11.1407 26.3174 10.8144 26.1724 10.5486L23.7558 6.36775C23.6108 6.10192 23.2845 6.00525 23.0187 6.10192L20.0099 7.31025C19.3816 6.82692 18.7049 6.42817 17.9678 6.12609L17.5087 2.924C17.4724 2.634 17.2187 2.4165 16.9166 2.4165H12.0833C11.7812 2.4165 11.5274 2.634 11.4912 2.924L11.032 6.12609C10.2949 6.42817 9.61826 6.839 8.98993 7.31025L5.98118 6.10192C5.70326 5.99317 5.38909 6.10192 5.24409 6.36775L2.82743 10.5486C2.67034 10.8144 2.74284 11.1407 2.97243 11.3219L5.52201 13.3157C5.47368 13.7023 5.43743 14.1011 5.43743 14.4998C5.43743 14.8986 5.47368 15.2973 5.52201 15.684L2.97243 17.6778C2.74284 17.859 2.68243 18.1853 2.82743 18.4511L5.24409 22.6319C5.38909 22.8978 5.71534 22.9944 5.98118 22.8978L8.98993 21.6894C9.61826 22.1728 10.2949 22.5715 11.032 22.8736L11.4912 26.0757C11.5274 26.3657 11.7812 26.5832 12.0833 26.5832H16.9166C17.2187 26.5832 17.4724 26.3657 17.5087 26.0757L17.9678 22.8736C18.7049 22.5715 19.3816 22.1607 20.0099 21.6894L23.0187 22.8978C23.2966 23.0065 23.6108 22.8978 23.7558 22.6319L26.1724 18.4511C26.3174 18.1853 26.257 17.859 26.0274 17.6778L23.4778 15.684ZM14.4999 18.729C12.1678 18.729 10.2708 16.8319 10.2708 14.4998C10.2708 12.1678 12.1678 10.2707 14.4999 10.2707C16.832 10.2707 18.7291 12.1678 18.7291 14.4998C18.7291 16.8319 16.832 18.729 14.4999 18.729Z" fill="white"/>
</g>
<defs>
<clipPath id="clip0_127_1207">
<rect width="29" height="29" fill="white"/>
</clipPath>
</defs>
</svg>
