<svg width="27" height="27" viewBox="0 0 27 27" fill="none" xmlns="http://www.w3.org/2000/svg">
<g clip-path="url(#clip0_202_603)">
<path d="M0 0H27V27H0V0Z" fill="#3D3D3D"/>
<path d="M15.75 1.125H11.25C10.6312 1.125 10.125 1.63125 10.125 2.25C10.125 2.86875 10.6312 3.375 11.25 3.375H15.75C16.3687 3.375 16.875 2.86875 16.875 2.25C16.875 1.63125 16.3687 1.125 15.75 1.125ZM13.5 15.75C14.1187 15.75 14.625 15.2437 14.625 14.625V10.125C14.625 9.50625 14.1187 9 13.5 9C12.8812 9 12.375 9.50625 12.375 10.125V14.625C12.375 15.2437 12.8812 15.75 13.5 15.75ZM21.4087 8.31375L22.2525 7.47C22.68 7.0425 22.6912 6.33375 22.2525 5.895L22.2412 5.88375C21.8025 5.445 21.105 5.45625 20.6662 5.88375L19.8225 6.7275C18.0787 5.3325 15.885 4.5 13.5 4.5C8.09999 4.5 3.50999 8.955 3.37499 14.355C3.22874 20.07 7.80749 24.75 13.5 24.75C19.1025 24.75 23.625 20.2162 23.625 14.625C23.625 12.24 22.7925 10.0462 21.4087 8.31375ZM13.5 22.5C9.14624 22.5 5.62499 18.9788 5.62499 14.625C5.62499 10.2712 9.14624 6.75 13.5 6.75C17.8537 6.75 21.375 10.2712 21.375 14.625C21.375 18.9788 17.8537 22.5 13.5 22.5Z" fill="#CED0FF"/>
</g>
<defs>
<clipPath id="clip0_202_603">
<rect width="27" height="27" fill="white"/>
</clipPath>
</defs>
</svg>
