<svg width="25" height="25" viewBox="0 0 25 25" fill="none" xmlns="http://www.w3.org/2000/svg">
<path d="M12.5001 6.45817C11.8355 6.45817 11.2917 7.00192 11.2917 7.6665V11.2915H7.66675C7.00216 11.2915 6.45841 11.8353 6.45841 12.4998C6.45841 13.1644 7.00216 13.7082 7.66675 13.7082H11.2917V17.3332C11.2917 17.9978 11.8355 18.5415 12.5001 18.5415C13.1647 18.5415 13.7084 17.9978 13.7084 17.3332V13.7082H17.3334C17.998 13.7082 18.5417 13.1644 18.5417 12.4998C18.5417 11.8353 17.998 11.2915 17.3334 11.2915H13.7084V7.6665C13.7084 7.00192 13.1647 6.45817 12.5001 6.45817ZM12.5001 0.416504C5.83008 0.416504 0.416748 5.82984 0.416748 12.4998C0.416748 19.1698 5.83008 24.5832 12.5001 24.5832C19.1701 24.5832 24.5834 19.1698 24.5834 12.4998C24.5834 5.82984 19.1701 0.416504 12.5001 0.416504ZM12.5001 22.1665C7.17133 22.1665 2.83341 17.8286 2.83341 12.4998C2.83341 7.17109 7.17133 2.83317 12.5001 2.83317C17.8288 2.83317 22.1667 7.17109 22.1667 12.4998C22.1667 17.8286 17.8288 22.1665 12.5001 22.1665Z" fill="white"/>
</svg>
